<?xml version="1.0" standalone="no"?><!DOCTYPE svg PUBLIC "-//W3C//DTD SVG 1.1//EN" "http://www.w3.org/Graphics/SVG/1.1/DTD/svg11.dtd"><svg t="1615433681683" class="icon" viewBox="0 0 1024 1024" version="1.1" xmlns="http://www.w3.org/2000/svg" p-id="569" xmlns:xlink="http://www.w3.org/1999/xlink" width="128" height="128"><defs><style type="text/css"></style></defs><path d="M85.333333 170.666667a128 128 0 0 1 128-128h597.333334a128 128 0 0 1 128 128v128a42.666667 42.666667 0 1 1-85.333334 0V170.666667a42.666667 42.666667 0 0 0-42.666666-42.666667H213.333333a42.666667 42.666667 0 0 0-42.666666 42.666667v723.669333l324.010666-144a42.666667 42.666667 0 0 1 34.645334 0L853.333333 894.336V469.333333a42.666667 42.666667 0 1 1 85.333334 0v425.002667a85.333333 85.333333 0 0 1-119.978667 77.994667L512 836.010667 205.312 972.373333A85.333333 85.333333 0 0 1 85.333333 894.293333V170.666667z" fill="#707070" p-id="570"></path><path d="M341.333333 298.666667a42.666667 42.666667 0 0 1 42.666667-42.666667h256a42.666667 42.666667 0 0 1 38.613333 60.842667l-170.666666 362.666666a42.666667 42.666667 0 1 1-77.226667-36.352L572.8 341.333333H384a42.666667 42.666667 0 0 1-42.666667-42.666666z" fill="#707070" p-id="571"></path></svg>