<?xml version="1.0" standalone="no"?><!DOCTYPE svg PUBLIC "-//W3C//DTD SVG 1.1//EN" "http://www.w3.org/Graphics/SVG/1.1/DTD/svg11.dtd"><svg t="1615433611913" class="icon" viewBox="0 0 1024 1024" version="1.1" xmlns="http://www.w3.org/2000/svg" p-id="2168" xmlns:xlink="http://www.w3.org/1999/xlink" width="128" height="128"><defs><style type="text/css"></style></defs><path d="M665.3 755c-10.4-7.8-25.3-0.2-25.3 12.8V816c0 8.8-7.1 15.9-15.9 15.9H592c-8.8 0-15.9-7.1-15.9-15.9v-48.3c0-13-14.9-20.6-25.3-12.8-23.5 17.5-38.7 45.5-38.7 77 0 41.4 26.2 76.7 63 90.2v37.3c0 17.9 14.5 32.5 32.5 32.5 17.9 0 32.5-14.5 32.5-32.5v-37c37.7-13.3 64.6-49.5 64-91.9-0.5-30.8-15.7-58.2-38.8-75.5z" p-id="2169"></path><path d="M926.5 956.5C914.3 811.9 828 688.5 705.8 624c-16.8-8.8-34.4-16.1-52.4-22.6-4.2-1.5-8.9-0.1-11.5 3.6-29 40.5-76.3 67-129.9 67-53.6 0-100.8-26.5-129.9-67-2.6-3.6-7.3-5.1-11.5-3.6-18 6.4-35.7 13.7-52.4 22.6-122.1 64.4-208.4 187.9-220.6 332.5-1.6 18.4 12.2 34.5 30.5 35.3H480c17.7 0 32-14.3 32-32s-14.3-32-32-32H165.9c20.6-111.6 93.9-204.6 193.1-252.6 40 37.6 93.8 60.6 153 60.6s113-23.1 153-60.6c99.2 48 172.6 141 193.1 252.6H736c-17.7 0-32 14.3-32 32s14.3 32 32 32h159.9c18.4-0.8 32.2-16.9 30.6-35.3zM224.1 256H800c17.7 0 32-14.3 32-32s-14.3-32-32-32h-30.3C722.6 97.2 625.1 32 512.1 32S301.6 97.2 254.4 192h-30.3c-17.7 0-32 14.3-32 32 0 17.6 14.3 32 32 32z m288-160c76.1 0 143.2 38 183.7 96H328.4c40.5-58 107.6-96 183.7-96z" p-id="2170"></path><path d="M288.1 288c-17.7 0-32 14.3-32 32v64c0 17.7 14.3 32 32 32h32c0 106 85.9 192 192 192s192-85.9 192-192h32c17.7 0 32-14.3 32-32v-64c0-17.7-14.3-32-32-32s-32 14.3-32 32v32h-384v-32c0-17.7-14.3-32-32-32z m352 127.9c0 70.7-57.3 128-128 128s-128-57.3-128-128h256z" p-id="2171"></path></svg>