<?xml version="1.0" standalone="no"?><!DOCTYPE svg PUBLIC "-//W3C//DTD SVG 1.1//EN" "http://www.w3.org/Graphics/SVG/1.1/DTD/svg11.dtd"><svg t="1615433728121" class="icon" viewBox="0 0 1024 1024" version="1.1" xmlns="http://www.w3.org/2000/svg" p-id="2368" xmlns:xlink="http://www.w3.org/1999/xlink" width="128" height="128"><defs><style type="text/css"></style></defs><path d="M486.613333 363.648c16.618667 0 28.053333 3.562667 34.346667 10.709333 6.250667 7.146667 9.386667 18.752 9.386667 34.773334v265.173333c0 15.744-3.136 27.413333-9.386667 34.986667-6.293333 7.594667-17.728 11.392-34.346667 11.392h-136.533333c-16.64 0-27.946667-3.797333-33.92-11.370667-5.973333-7.594667-8.96-19.264-8.96-35.008v-265.173333c0-16.021333 3.2-27.626667 9.621333-34.773334 6.421333-7.146667 17.493333-10.709333 33.258667-10.709333h46.826667V333.866667c0-8.448 1.877333-15.018667 5.674666-19.690667 3.797333-4.672 10.218667-6.997333 19.264-6.997333 8.149333 0 14.357333 2.56 18.581334 7.658666 4.245333 5.12 6.357333 11.456 6.357333 19.029334v29.76h39.808z m230.122667 246.336c-0.576 25.664-7.210667 45.354667-19.904 59.072-12.693333 13.696-31.424 20.416-56.213333 20.117333-13.141333-0.277333-22.186667-2.986667-27.136-8.106666-4.949333-5.077333-6.848-13.333333-5.696-24.704 0.874667-9.045333 3.648-15.168 8.32-18.368 4.672-3.2 13.44-4.245333 26.24-3.072 8.192 0.874667 14.165333-1.685333 17.962666-7.658667 3.776-5.973333 5.546667-13.781333 5.248-23.402667-0.298667-12.245333-3.2-24.874667-8.746666-37.845333-5.546667-12.992-15.04-27.072-28.458667-42.24a52.48 52.48 0 0 1-12.906667-31.061333 98.133333 98.133333 0 0 1 4.608-35.434667 1361.429333 1361.429333 0 0 1 10.922667-35.669333 1153.536 1153.536 0 0 0 10.944-35.648c1.173333-3.797333 1.386667-6.272 0.64-7.445334-0.704-1.173333-2.816-1.749333-6.314667-1.749333H608.213333c-3.2 0-5.397333 0.576-6.570666 1.749333-1.152 1.173333-1.749333 3.648-1.749334 7.445334v318.528c0 17.792-8.597333 26.688-25.813333 26.688-8.746667 0-15.018667-2.112-18.816-6.336-3.797333-4.224-5.674667-11.008-5.674667-20.352v-325.546667c0-19.242667 3.413333-33.088 10.282667-41.557333 6.826667-8.448 16.853333-12.693333 29.952-12.693334h71.765333c14.293333 0 24.874667 4.693333 31.722667 14.016 6.848 9.322667 8.234667 20.992 4.16 34.986667L667.733333 474.368a53.333333 53.333333 0 0 0-2.624 10.709333c-0.277333 2.773333 1.024 6.058667 3.946667 9.856 15.146667 18.666667 27.050667 37.269333 35.648 55.786667 8.618667 18.517333 12.629333 38.272 12.032 59.285333z m-360.533333 43.754667c0 3.797333 0.213333 6.698667 0.64 8.746666 0.448 2.048 1.322667 3.584 2.645333 4.608a11.029333 11.029333 0 0 0 5.461333 1.962667c2.346667 0.277333 5.248 0.426667 8.746667 0.426667h23.210667v-106.752h-40.704v91.008z m13.12-239.786667c-5.824 0-9.472 0.597333-10.922667 1.749333-1.472 1.173333-2.197333 4.245333-2.197333 9.194667V512h40.704v-98.026667h-27.584z m98.026666 255.530667c6.698667 0 10.709333-0.938667 12.032-2.837334 1.301333-1.898667 1.962667-6.186667 1.962667-12.906666v-91.008h-34.56v106.752h20.565333z m-20.565333-255.530667V512h34.56v-82.709333c0-6.997333-0.725333-11.306667-2.197333-12.906667-1.450667-1.6-5.248-2.410667-11.370667-2.410667h-20.992zM512 960C264.576 960 64 759.424 64 512S264.576 64 512 64s448 200.576 448 448-200.576 448-448 448z m0-64c212.074667 0 384-171.925333 384-384S724.074667 128 512 128 128 299.925333 128 512s171.925333 384 384 384z" fill="#000000" p-id="2369"></path></svg>